<svg xmlns="http://www.w3.org/2000/svg" xmlns:xlink="http://www.w3.org/1999/xlink" viewBox="0 0 628.94 168.92"><defs><style>.cls-1{stroke-miterlimit:10;fill:url(#Degradado_sin_nombre_719);stroke:url(#Degradado_sin_nombre_590);}.cls-2{fill:#858585;}.cls-3{fill:#404040;}</style><linearGradient id="Degradado_sin_nombre_719" x1="30.83" y1="145.44" x2="104.35" y2="18.09" gradientUnits="userSpaceOnUse"><stop offset="0" stop-color="#0d112f"></stop><stop offset="0.05" stop-color="#0f1533"></stop><stop offset="0.48" stop-color="#1b3252"></stop><stop offset="0.71" stop-color="#1f3d5d"></stop></linearGradient><linearGradient id="Degradado_sin_nombre_590" y1="84.46" x2="148.05" y2="84.46" gradientUnits="userSpaceOnUse"><stop offset="0" stop-color="#e6e6e6"></stop><stop offset="1" stop-color="#bfbfbf"></stop></linearGradient></defs><title>Recurso 3300</title><g id="Capa_2" data-name="Capa 2"><g id="Capa_1-2" data-name="Capa 1"><path class="cls-1" d="M.5,43,44.08,17.87V78.38L26.37,68.15V48.55l-8.16,4.7V72.86l25.3,14.6.57.33v65.3L.5,127.93V92.58L18.21,102.8v14.9l8.16,4.71V98.1L.5,83.16ZM74,.58,95.82,13.16V157.8L78.07,168V147.59l0,0V98L74,101.11,70,98.18v49.39l0,0v20.45L52.23,157.8V13.16ZM78.1,23.39,74,21,70,23.39V88.23l8.15-.11Zm43.58,79.41v19.61l.12,20.38L104,153.09V17.87L147.55,43V87.87Zm0-20.53,8.16-4V54l-8.16-5.41V82.27Z"></path><rect class="cls-2" x="204.69" y="8.53" width="1.48" height="151.56"></rect><path class="cls-2" d="M282,83a30.33,30.33,0,0,1-21.66-9.09L265,68.55a29.7,29.7,0,0,0,8.41,6,21.71,21.71,0,0,0,9.06,2,17.29,17.29,0,0,0,6.36-1.09,10.18,10.18,0,0,0,4.29-3,6.73,6.73,0,0,0,1.56-4.37,6.24,6.24,0,0,0-2.39-5.24c-1.59-1.22-4.21-2.13-7.87-2.7l-8.37-1.45q-7-1.15-10.43-4.4a11.36,11.36,0,0,1-3.43-8.66,13.1,13.1,0,0,1,2.31-7.66A14.82,14.82,0,0,1,271,32.82,24.8,24.8,0,0,1,280.81,31a34.16,34.16,0,0,1,20.36,6.86L297,43.72q-8.16-6.21-16.54-6.21a16.35,16.35,0,0,0-5.81.94,8.58,8.58,0,0,0-3.82,2.63,6.26,6.26,0,0,0-1.34,4,5.59,5.59,0,0,0,2.09,4.62q2.1,1.66,6.86,2.46l8.23,1.3q8,1.29,11.77,4.69t3.75,9.31a13.83,13.83,0,0,1-2.49,8.16,15.82,15.82,0,0,1-7.07,5.45A27.4,27.4,0,0,1,282,83Z"></path><path class="cls-2" d="M322,82.27V38.45H304.2V31.73h43.11v6.72H329.55V82.27Z"></path><path class="cls-2" d="M374.31,83.07a23.07,23.07,0,0,1-11.56-2.75,18.48,18.48,0,0,1-7.43-7.76,25.52,25.52,0,0,1-2.6-11.88V31.73h7.58v29A17.92,17.92,0,0,0,362,68.81a13,13,0,0,0,4.88,5.34,13.89,13.89,0,0,0,7.4,1.91,13.57,13.57,0,0,0,7.29-1.91,13,13,0,0,0,4.83-5.34,17.79,17.79,0,0,0,1.74-8.13V31.73h7.58v29a25.15,25.15,0,0,1-2.64,11.88,18.73,18.73,0,0,1-7.43,7.76A22.55,22.55,0,0,1,374.31,83.07Z"></path><path class="cls-2" d="M405.13,82.27V31.73h17.76a28.86,28.86,0,0,1,10.58,1.88,25.58,25.58,0,0,1,8.41,5.31A24.54,24.54,0,0,1,449.53,57a24.61,24.61,0,0,1-2,10.07,25,25,0,0,1-5.59,8,25.31,25.31,0,0,1-8.41,5.3,29,29,0,0,1-10.62,1.88Zm7.58-6.79H423a19.36,19.36,0,0,0,7.36-1.37,18,18,0,0,0,9.93-9.78,19.4,19.4,0,0,0,0-14.62,18,18,0,0,0-4-5.88,18.37,18.37,0,0,0-5.92-3.9A19.19,19.19,0,0,0,423,38.52H412.71Z"></path><path class="cls-2" d="M468,82.27V62.2L447.66,31.73h8.8L472,55.56l15.59-23.83H496L475.6,62.42V82.27Z"></path><path class="cls-2" d="M511,82.27l20.86-50.54h8.88l20.72,50.54H553.2l-5.84-14.8H524.69l-5.85,14.8Zm16.24-21.08H544.9L536.09,39Z"></path><path class="cls-2" d="M566.7,82.27V31.73h7.58V82.27Z"></path><path class="cls-2" d="M584.54,82.27V31.73H602.3a28.8,28.8,0,0,1,10.57,1.88,25.48,25.48,0,0,1,8.41,5.31,24.34,24.34,0,0,1,5.63,8,25.07,25.07,0,0,1-5.59,28.12,25.21,25.21,0,0,1-8.41,5.3,28.92,28.92,0,0,1-10.61,1.88Zm7.58-6.79h10.32a19.32,19.32,0,0,0,7.36-1.37,18,18,0,0,0,9.93-9.78,19.4,19.4,0,0,0,0-14.62,18,18,0,0,0-4-5.88,18.27,18.27,0,0,0-5.92-3.9,19.17,19.17,0,0,0-7.43-1.41H592.12Z"></path><path class="cls-3" d="M264.35,152.37V101.83h25.34a18.34,18.34,0,0,1,8.81,2.06,15.12,15.12,0,0,1,6,5.63,15.67,15.67,0,0,1,2.13,8.19,15.24,15.24,0,0,1-2.13,8,14.91,14.91,0,0,1-6,5.56,18.75,18.75,0,0,1-8.78,2H274.82v19.06Zm10.47-27.73h13.72a7.66,7.66,0,0,0,5.45-1.91,6.44,6.44,0,0,0,2.06-4.94A6.62,6.62,0,0,0,294,112.7a7.67,7.67,0,0,0-5.45-1.92H274.82Z"></path><path class="cls-3" d="M313.59,152.37V101.83h10.47v41.3h27.65v9.24Z"></path><path class="cls-3" d="M355,152.37l20.79-50.54H388l20.5,50.54H397.12L392,139.16H371.06l-5.13,13.21Zm19.28-21.66h14.51l-7.15-18.63Z"></path><path class="cls-3" d="M412.71,152.37V101.83h10l25.05,32.63V101.83h9.89v50.54h-9.24L422.6,118.58v33.79Z"></path><path class="cls-3" d="M502.74,153.09a24.53,24.53,0,0,1-11.84-2.74,18.68,18.68,0,0,1-7.76-7.84,25.18,25.18,0,0,1-2.71-12V101.83h10.4v28.66a15.06,15.06,0,0,0,1.48,6.9,10.4,10.4,0,0,0,4.18,4.47,13.66,13.66,0,0,0,12.64,0,10.37,10.37,0,0,0,4.08-4.47,15.46,15.46,0,0,0,1.44-6.9V101.83h10.47v28.66a24.92,24.92,0,0,1-2.74,11.95,19.29,19.29,0,0,1-7.76,7.87A24.2,24.2,0,0,1,502.74,153.09Z"></path><path class="cls-3" d="M551.47,153.09a32.18,32.18,0,0,1-11.91-2.31,33.8,33.8,0,0,1-10.4-6.43l6-7.58a32.85,32.85,0,0,0,8.49,5.67,21.42,21.42,0,0,0,8.62,1.77,17.54,17.54,0,0,0,5.49-.76,7.84,7.84,0,0,0,3.57-2.2,4.94,4.94,0,0,0,1.27-3.39,4.83,4.83,0,0,0-1.88-4.05q-1.87-1.44-6.42-2.16l-10-1.74q-6.42-1.16-9.82-4.58a12.15,12.15,0,0,1-3.39-8.92,13.65,13.65,0,0,1,2.45-8.12,15.65,15.65,0,0,1,6.9-5.27A27.46,27.46,0,0,1,551,101.18,35.26,35.26,0,0,1,562.05,103a30.4,30.4,0,0,1,9.78,5.24L566.2,116q-8-6.06-16-6.06a15.16,15.16,0,0,0-4.91.72,7.47,7.47,0,0,0-3.21,2,4.63,4.63,0,0,0,.58,6.61,14.2,14.2,0,0,0,5.52,2l9.53,1.51q7.57,1.23,11.37,4.81a12.33,12.33,0,0,1,3.79,9.42,14.11,14.11,0,0,1-2.63,8.52,17.3,17.3,0,0,1-7.44,5.63A29.32,29.32,0,0,1,551.47,153.09Z"></path><path class="cls-3" d="M573.49,152.37l20.79-50.54h12.13l20.5,50.54H615.58l-5.13-13.21H589.52l-5.13,13.21Zm19.28-21.66h14.51l-7.15-18.63Z"></path></g></g></svg>